<svg width="18" height="18" viewBox="0 0 18 18" fill="none" xmlns="http://www.w3.org/2000/svg">
<path opacity="0.2" d="M2.84685 15.5588L5.02654 9.18076C5.07086 9.05856 5.07086 8.92468 5.02654 8.80248L2.84685 2.44131C2.80839 2.33349 2.80374 2.2165 2.83352 2.10597C2.86331 1.99544 2.9261 1.89663 3.01353 1.82273C3.10095 1.74883 3.20884 1.70337 3.32279 1.6924C3.43674 1.68144 3.55132 1.70551 3.65122 1.76139L15.4637 8.50084C15.5516 8.54948 15.6249 8.62079 15.676 8.70735C15.727 8.7939 15.7539 8.89255 15.7539 8.99303C15.7539 9.09351 15.727 9.19215 15.676 9.27871C15.6249 9.36526 15.5516 9.43657 15.4637 9.48522L3.65122 16.2415C3.55107 16.2979 3.43607 16.3222 3.32167 16.3113C3.20728 16.3003 3.09899 16.2545 3.01138 16.1802C2.92377 16.1058 2.86104 16.0064 2.83162 15.8953C2.80221 15.7842 2.80752 15.6668 2.84685 15.5588Z" fill="#18212E"/>
<path d="M3.93094 16.7273L15.7371 9.97377C15.9111 9.8759 16.0559 9.73351 16.1567 9.5612C16.2574 9.38889 16.3105 9.19287 16.3105 8.99326C16.3105 8.79365 16.2574 8.59763 16.1567 8.42532C16.0559 8.25301 15.9111 8.11062 15.7371 8.01275L3.92462 1.27049C3.72529 1.15881 3.49668 1.11048 3.26921 1.13192C3.04174 1.15335 2.82618 1.24354 2.65122 1.39048C2.47626 1.53743 2.35019 1.73416 2.28979 1.95451C2.22938 2.17486 2.23749 2.40838 2.31305 2.624L4.49274 8.98518L4.49274 8.99221L4.49274 8.99854L2.31305 15.3745C2.23655 15.5908 2.22801 15.8253 2.28856 16.0465C2.34911 16.2678 2.47587 16.4653 2.65184 16.6125C2.8278 16.7597 3.04457 16.8496 3.27306 16.8701C3.50156 16.8906 3.73087 16.8408 3.93024 16.7273L3.93094 16.7273ZM3.3797 15.7429L5.49399 9.56244L9.56227 9.56244C9.71146 9.56244 9.85453 9.50318 9.96002 9.39769C10.0655 9.2922 10.1248 9.14913 10.1248 8.99994C10.1248 8.85076 10.0655 8.70768 9.96002 8.60219C9.85453 8.4967 9.71146 8.43744 9.56227 8.43744L5.49962 8.43744L3.37899 2.25838L3.37477 2.24994L15.1873 8.9901L3.37477 15.7499L3.3797 15.7429Z" fill="#191919" fill-opacity="0.933333"/>
</svg>
