<svg width="18" height="18" viewBox="0 0 18 18" fill="none" xmlns="http://www.w3.org/2000/svg">
<path opacity="0.2" d="M2.84685 15.5587L5.02654 9.1807C5.07086 9.0585 5.07086 8.92462 5.02654 8.80242L2.84685 2.44125C2.80839 2.33343 2.80374 2.21644 2.83352 2.10591C2.86331 1.99538 2.9261 1.89657 3.01353 1.82267C3.10095 1.74877 3.20884 1.70331 3.32279 1.69234C3.43674 1.68138 3.55132 1.70545 3.65122 1.76133L15.4637 8.50078C15.5516 8.54943 15.6249 8.62073 15.676 8.70729C15.727 8.79384 15.7539 8.89249 15.7539 8.99297C15.7539 9.09345 15.727 9.19209 15.676 9.27865C15.6249 9.36521 15.5516 9.43651 15.4637 9.48516L3.65122 16.2415C3.55107 16.2978 3.43607 16.3222 3.32167 16.3112C3.20728 16.3002 3.09899 16.2545 3.01138 16.1801C2.92377 16.1057 2.86104 16.0063 2.83162 15.8952C2.80221 15.7842 2.80752 15.6667 2.84685 15.5587Z" fill="#E2E8F0"/>
<path d="M3.93094 16.7273L15.7371 9.97383C15.9111 9.87596 16.0559 9.73357 16.1567 9.56126C16.2574 9.38895 16.3105 9.19293 16.3105 8.99332C16.3105 8.79371 16.2574 8.59769 16.1567 8.42538C16.0559 8.25307 15.9111 8.11068 15.7371 8.01281L3.92462 1.27055C3.72529 1.15887 3.49668 1.11054 3.26921 1.13197C3.04174 1.15341 2.82618 1.2436 2.65122 1.39054C2.47626 1.53749 2.35019 1.73422 2.28979 1.95457C2.22938 2.17492 2.23749 2.40844 2.31305 2.62406L4.49274 8.98523L4.49274 8.99227L4.49274 8.99859L2.31305 15.3745C2.23655 15.5908 2.22801 15.8253 2.28856 16.0466C2.34911 16.2679 2.47587 16.4654 2.65184 16.6126C2.8278 16.7598 3.04457 16.8496 3.27306 16.8702C3.50156 16.8907 3.73087 16.8408 3.93024 16.7273L3.93094 16.7273ZM3.3797 15.743L5.49399 9.5625L9.56227 9.5625C9.71146 9.5625 9.85453 9.50324 9.96002 9.39775C10.0655 9.29226 10.1248 9.14918 10.1248 9C10.1248 8.85082 10.0655 8.70774 9.96002 8.60225C9.85453 8.49676 9.71146 8.4375 9.56227 8.4375L5.49962 8.4375L3.37899 2.25844L3.37477 2.25L15.1873 8.99016L3.37477 15.75L3.3797 15.743Z" fill="#F0F2F5" fill-opacity="0.933333"/>
</svg>
