<svg width="14" height="12" viewBox="0 0 14 12" fill="none" xmlns="http://www.w3.org/2000/svg">
<path d="M13.9514 1.68822C13.431 1.91923 12.8787 2.0706 12.3131 2.13724C12.909 1.781 13.3549 1.22001 13.5673 0.559051C13.0075 0.891495 12.3949 1.12573 11.756 1.25162C11.4892 0.966865 11.1667 0.739966 10.8086 0.585002C10.4505 0.430037 10.0643 0.350312 9.67408 0.350771C8.099 0.350771 6.82195 1.62782 6.82195 3.20319C6.82195 3.42642 6.84706 3.64402 6.89589 3.85314C4.52522 3.73405 2.42324 2.59867 1.01636 0.872881C0.762614 1.30821 0.629356 1.80325 0.630281 2.30713C0.630281 3.2966 1.13376 4.1698 1.89915 4.68118C1.44619 4.66681 1.00322 4.54441 0.607139 4.32417L0.606857 4.3603C0.606857 5.74205 1.59012 6.89465 2.89511 7.15711C2.47491 7.27086 2.03433 7.28746 1.60677 7.20566C1.96999 8.33878 3.02324 9.16371 4.27122 9.18657C3.26092 9.97965 2.01318 10.4098 0.728777 10.4077C0.498766 10.4077 0.271577 10.3942 0.0483398 10.3677C1.3525 11.2059 2.87048 11.6508 4.4208 11.6492C9.66759 11.6492 12.5364 7.30302 12.5364 3.53367C12.5364 3.41006 12.5338 3.28672 12.5285 3.16424C13.087 2.76101 13.5689 2.26113 13.9514 1.68822Z" fill="#439DFF"/>
</svg>
